# xmcd
#
# Track frame offsets: 
#        150
#        12936
#        29432
#        44103
#        61080
#        75193
#        86707
#        107582
#        121306
#        132982
#        165612
#        184119
#
# Disc length: 2583 seconds
#
# Revision: 1
# Processed by: cddbd v1.5.2PL0 Copyright (c) Steve Scherf et al.
# Submitted via: ExactAudioCopy v1.1
#
DISCID=940a150c
DTITLE=Diana Ross - Touch Me In The Morning (Expanded Edition) - Disc 
DTITLE=2
DYEAR=2009
DGENRE=R&B
TTITLE0=Part Of You
TTITLE1=A Wonderful Guest
TTITLE2=Young Mothers
TTITLE3=The First Time Ever I Saw Your Face
TTITLE4=Got To Be There
TTITLE5=To The Baby
TTITLE6=Brown Baby (alt)
TTITLE7=My Baby (My Baby My Own) (alt)
TTITLE8=Turn Around (alt)
TTITLE9=Medley Imagine - Save The Children (alt - original edit)
TTITLE10=Kewpie Doll
TTITLE11=When We Grow Up
EXTD=
EXTT0=
EXTT1=
EXTT2=
EXTT3=
EXTT4=
EXTT5=
EXTT6=
EXTT7=
EXTT8=
EXTT9=
EXTT10=
EXTT11=
PLAYORDER=
